<?xml version="1.0" encoding="UTF-8"?>
<svg fill="none" viewBox="0 0 85 44" xmlns="http://www.w3.org/2000/svg">
<g clip-path="url(#a)">
<path d="m77.04 0.5h-70.04c-3.5898 0-6.5 2.9102-6.5 6.5v30c0 3.5899 2.9102 6.5 6.5 6.5h70.04c3.5899 0 6.5-2.9101 6.5-6.5v-30c0-3.5898-2.9101-6.5-6.5-6.5z" fill="#000"/>
<path d="m7 1c-3.3137 0-6 2.6863-6 6v30c0 3.3137 2.6863 6 6 6h70.04c3.3137 0 6-2.6863 6-6v-30c0-3.3137-2.6863-6-6-6h-70.04zm-7 6c0-3.866 3.134-7 7-7h70.04c3.866 0 7 3.134 7 7v30c0 3.866-3.134 7-7 7h-70.04c-3.866 0-7-3.134-7-7v-30z" clip-rule="evenodd" fill="#B1B1B1" fill-rule="evenodd"/>
<path d="m28.44 11.13h-15.69c-1.29 0-1.76 0.47-1.76 1.74v15.46c0 0.2 0.04 0.56 0.1 0.71s0.13 0.28 0.24 0.39c0.12 0.12 0.34 0.24 0.44 0.28l8.32 3.5c0.15 0.06 0.32 0.1 0.5 0.1s0.34-0.04 0.5-0.1l8.32-3.5c0.1-0.05 0.32-0.17 0.44-0.28s0.18-0.24 0.24-0.39 0.1-0.51 0.1-0.71v-15.46c0-1.27-0.47-1.74-1.76-1.74h0.01zm-6.84 2.78h1.31v8.5h-1.31v-8.5zm0.83 10.54v2.58h-0.72v-1.48l-0.67 1.01h-0.01l-0.66-1v1.47h-0.71v-2.58h0.76l0.62 1 0.62-1h0.77zm-5.08-10.54h2.06c1.07 0 1.6 0.52 1.6 1.58v2.26c0 1.06-0.53 1.58-1.6 1.58h-0.75v3.09h-1.31v-8.51zm-3.58 0h2.92v1.18h-1.61v2.41h1.55v1.18h-1.55v2.56h1.63v1.18h-2.95v-8.5l0.01-0.01zm2.49 12.77c-0.14 0.11-0.3 0.21-0.49 0.28s-0.4 0.11-0.64 0.11c-0.2 0-0.39-0.03-0.56-0.1s-0.32-0.16-0.45-0.28-0.23-0.26-0.3-0.42-0.11-0.34-0.11-0.54 0.04-0.37 0.11-0.53 0.17-0.3 0.29-0.43c0.12-0.12 0.27-0.22 0.45-0.29 0.17-0.07 0.36-0.1 0.56-0.1 0.23 0 0.43 0.03 0.6 0.1s0.32 0.16 0.46 0.28l-0.42 0.5c-0.09-0.08-0.19-0.14-0.29-0.18s-0.21-0.06-0.34-0.06c-0.09 0-0.18 0.02-0.26 0.06s-0.15 0.09-0.21 0.15-0.11 0.14-0.14 0.22-0.05 0.18-0.05 0.28c0 0.11 0.02 0.21 0.05 0.29 0.03 0.09 0.08 0.16 0.15 0.23 0.06 0.06 0.14 0.11 0.22 0.15 0.09 0.04 0.18 0.05 0.29 0.05 0.17 0 0.31-0.04 0.42-0.11v-0.31h-0.51v-0.52h1.2v1.16l-0.03 0.01zm0.23 0.35 1.11-2.6h0.7l1.11 2.6h-0.77l-0.19-0.46h-1.01l-0.19 0.46h-0.76zm7.28 2.85s0 0.02-0.01 0.02c0 0-0.01 0.01-0.02 0.01l-3.04 1.28s-0.07 0.02-0.11 0.02-0.07 0-0.11-0.02l-3.01-1.28s-0.02 0-0.02-0.01c0 0-0.01-0.01-0.01-0.02v-0.03-0.03s0-0.02 0.01-0.02c0 0 0.01-0.01 0.02-0.01h0.03 6.21 0.03s0.02 0 0.02 0.01 0.01 0.01 0.01 0.02v0.03 0.03zm1.26-2.85h-2.12v-2.58h2.1v0.61h-1.38v0.39h1.25v0.56h-1.25v0.41h1.4v0.61zm-1.42-11.61c0-1.06 0.53-1.58 1.6-1.58h0.64c1.07 0 1.58 0.51 1.58 1.57v1.74h-1.29v-1.66c0-0.34-0.16-0.5-0.49-0.5h-0.22c-0.34 0-0.5 0.16-0.5 0.5v5.37c0 0.34 0.16 0.5 0.5 0.5h0.25c0.33 0 0.49-0.16 0.49-0.5v-1.92h1.29v1.98c0 1.06-0.53 1.58-1.6 1.58h-0.65c-1.07 0-1.6-0.52-1.6-1.58v-5.5zm3.89 10.81c0 0.13-0.03 0.25-0.08 0.35s-0.12 0.19-0.21 0.26-0.2 0.13-0.33 0.17-0.27 0.06-0.43 0.06c-0.23 0-0.46-0.04-0.67-0.11s-0.4-0.18-0.56-0.32l0.4-0.48c0.26 0.21 0.54 0.31 0.85 0.31 0.1 0 0.17-0.02 0.22-0.05s0.08-0.07 0.08-0.13c0 0 0-0.06-0.02-0.08-0.01-0.02-0.04-0.04-0.07-0.06s-0.08-0.04-0.13-0.06c-0.06-0.02-0.13-0.04-0.22-0.06-0.14-0.03-0.27-0.07-0.39-0.1-0.12-0.04-0.22-0.09-0.31-0.15s-0.16-0.14-0.21-0.22-0.08-0.2-0.08-0.33 0.02-0.24 0.07-0.34 0.11-0.19 0.2-0.26 0.19-0.13 0.32-0.17c0.12-0.04 0.26-0.06 0.42-0.06 0.22 0 0.42 0.03 0.6 0.09s0.33 0.14 0.48 0.26l-0.36 0.5c-0.12-0.08-0.24-0.15-0.37-0.19s-0.25-0.06-0.36-0.06c-0.09 0-0.15 0.02-0.2 0.05-0.04 0.03-0.07 0.07-0.07 0.12 0 0 0 0.06 0.02 0.08 0.01 0.02 0.04 0.04 0.07 0.06s0.08 0.04 0.14 0.06 0.13 0.04 0.22 0.06c0.15 0.03 0.28 0.07 0.4 0.11s0.22 0.1 0.31 0.16c0.08 0.06 0.15 0.14 0.19 0.22 0.04 0.09 0.07 0.19 0.07 0.31h0.01z" fill="#fff"/>
<path d="m19.69 17.69v-2.14c0-0.34-0.16-0.5-0.49-0.5h-0.54v3.13h0.54c0.33 0 0.49-0.16 0.49-0.5v0.01z" fill="#fff"/>
<path d="m17.94 25.28-0.29 0.73h0.58l-0.29-0.73z" fill="#fff"/>
<path d="m43.54 22.47c-0.15-0.26-0.35-0.48-0.6-0.66-0.25-0.17-0.56-0.34-0.95-0.5l-1.51-0.61c-0.17-0.07-0.31-0.14-0.42-0.21s-0.2-0.15-0.25-0.24c-0.06-0.09-0.1-0.2-0.12-0.33s-0.03-0.29-0.03-0.48c0-0.39 0.07-0.68 0.2-0.86 0.07-0.09 0.16-0.17 0.27-0.23s0.25-0.09 0.42-0.09c0.18 0 0.32 0.03 0.43 0.08 0.11 0.06 0.19 0.13 0.26 0.22 0.1 0.14 0.16 0.3 0.18 0.48 0.02 0.19 0.03 0.39 0.03 0.6h2.4c0-0.61-0.07-1.15-0.22-1.62s-0.38-0.86-0.71-1.17c-0.54-0.51-1.33-0.76-2.37-0.76-0.46 0-0.87 0.06-1.23 0.19s-0.69 0.32-0.98 0.57c-0.36 0.32-0.63 0.7-0.81 1.15s-0.27 0.96-0.27 1.52c0 0.47 0.03 0.87 0.1 1.2s0.17 0.6 0.3 0.83c0.14 0.23 0.31 0.42 0.53 0.57 0.22 0.16 0.48 0.3 0.79 0.42l1.52 0.63c0.21 0.09 0.39 0.18 0.52 0.25 0.14 0.08 0.24 0.18 0.32 0.3s0.13 0.27 0.16 0.46 0.04 0.42 0.04 0.7c0 0.48-0.08 0.82-0.24 1.01-0.16 0.2-0.41 0.3-0.76 0.3-0.19 0-0.35-0.03-0.46-0.08-0.12-0.06-0.21-0.12-0.28-0.2-0.11-0.12-0.18-0.28-0.21-0.46s-0.04-0.39-0.04-0.64h-2.4c0 0.62 0.06 1.15 0.18 1.58s0.32 0.8 0.62 1.09c0.27 0.27 0.62 0.48 1.06 0.64 0.43 0.16 0.95 0.24 1.55 0.24s1.1-0.08 1.55-0.25 0.8-0.38 1.07-0.64c0.32-0.3 0.52-0.67 0.63-1.11s0.15-0.96 0.15-1.56c0-0.54-0.03-1-0.09-1.37s-0.17-0.69-0.32-0.96h-0.01z" fill="#fff"/>
<path d="m44.27 18.35h2.03v9.87h2.4v-9.87h2.03v-2.16h-6.46v2.16z" fill="#fff"/>
<path d="m58.07 19.25c-0.06-0.41-0.14-0.78-0.26-1.11s-0.28-0.62-0.5-0.88c-0.27-0.34-0.61-0.63-1.03-0.86-0.42-0.24-0.95-0.36-1.61-0.36s-1.19 0.12-1.61 0.36-0.76 0.52-1.03 0.86c-0.21 0.26-0.38 0.55-0.5 0.88s-0.21 0.7-0.27 1.11-0.1 0.86-0.11 1.35-0.02 1.02-0.02 1.6 0 1.11 0.02 1.6c0.01 0.49 0.05 0.94 0.11 1.35s0.15 0.78 0.27 1.11 0.28 0.62 0.5 0.88c0.27 0.34 0.61 0.63 1.03 0.86 0.42 0.24 0.95 0.36 1.61 0.36s1.19-0.12 1.61-0.36 0.76-0.52 1.03-0.86c0.21-0.26 0.38-0.55 0.5-0.88s0.21-0.7 0.26-1.11c0.06-0.41 0.09-0.86 0.11-1.35s0.03-1.02 0.03-1.6 0-1.11-0.03-1.6c-0.02-0.49-0.05-0.94-0.11-1.35zm-2.27 4.04c0 0.36-0.02 0.7-0.04 1.01-0.02 0.32-0.06 0.6-0.1 0.85s-0.1 0.44-0.17 0.57c-0.07 0.14-0.16 0.25-0.29 0.34-0.12 0.09-0.3 0.14-0.52 0.14s-0.4-0.04-0.52-0.14-0.22-0.2-0.29-0.34-0.12-0.33-0.17-0.57c-0.05-0.25-0.08-0.53-0.1-0.85s-0.04-0.65-0.04-1.01v-1.08-1.08c0-0.36 0.02-0.7 0.04-1.01 0.02-0.32 0.06-0.6 0.1-0.85s0.1-0.44 0.17-0.57 0.16-0.25 0.29-0.34c0.12-0.09 0.3-0.14 0.52-0.14s0.4 0.05 0.52 0.14 0.22 0.2 0.29 0.34 0.12 0.33 0.17 0.57c0.04 0.25 0.08 0.53 0.1 0.85s0.04 0.65 0.04 1.01v1.08 1.08z" fill="#fff"/>
<path d="m65.46 22.4c0.18-0.23 0.32-0.48 0.41-0.75 0.1-0.27 0.16-0.56 0.19-0.85 0.03-0.3 0.05-0.61 0.05-0.94 0-0.57-0.05-1.09-0.15-1.55s-0.28-0.84-0.53-1.15-0.6-0.55-1.03-0.72-0.98-0.25-1.63-0.25h-3.43v12.04h2.4v-4.68h0.79l1.47 4.68h2.5l-1.76-5.21c0.29-0.18 0.53-0.39 0.71-0.62h0.01zm-1.77-2.02c-0.02 0.18-0.06 0.34-0.12 0.49s-0.16 0.27-0.29 0.36c-0.13 0.1-0.31 0.14-0.53 0.14h-1.01v-3.03h1.01c0.23 0 0.4 0.05 0.53 0.14s0.23 0.21 0.29 0.36 0.1 0.31 0.12 0.49 0.03 0.36 0.03 0.52c0 0.17 0 0.34-0.03 0.52v0.01z" fill="#fff"/>
<path d="m73.01 18.35v-2.16h-5.55v12.03h5.55v-2.16h-3.15v-2.87h2.71v-2.17h-2.71v-2.67h3.15z" fill="#fff"/>
</g>
<defs>
<clipPath id="a">
<rect width="84.04" height="44" fill="#fff"/>
</clipPath>
</defs>
</svg>
