<svg width="123" height="44" viewBox="0 0 123 44" fill="none" xmlns="http://www.w3.org/2000/svg">
<rect x="0.5225" y="0.5225" width="121.391" height="42.955" rx="7.1775" fill="black"/>
<rect x="0.5225" y="0.5225" width="121.391" height="42.955" rx="7.1775" stroke="#B1B1B1" stroke-width="1.045"/>
<g clip-path="url(#clip0_1400_341)">
<path d="M20.713 11.7095H11V21.4225H20.713V11.7095Z" fill="white"/>
<path d="M31.636 11.7095H21.923V21.4225H31.636V11.7095Z" fill="white"/>
<path d="M20.713 22.5775H11V32.2905H20.713V22.5775Z" fill="white"/>
<path d="M31.636 22.5775H21.923V32.2905H31.636V22.5775Z" fill="white"/>
</g>
<path d="M41.3829 20.3V10.7H44.9829C45.7204 10.7 46.3391 10.8375 46.8391 11.1125C47.3423 11.3875 47.7219 11.7656 47.9782 12.2469C48.2376 12.725 48.3673 13.2688 48.3673 13.8781C48.3673 14.4938 48.2376 15.0406 47.9782 15.5188C47.7188 15.9969 47.336 16.3734 46.8298 16.6484C46.3235 16.9203 45.7001 17.0563 44.9594 17.0563H42.5735V15.6266H44.7251C45.1563 15.6266 45.5094 15.5516 45.7844 15.4016C46.0594 15.2516 46.2626 15.0453 46.3938 14.7828C46.5282 14.5203 46.5954 14.2188 46.5954 13.8781C46.5954 13.5375 46.5282 13.2375 46.3938 12.9781C46.2626 12.7188 46.0579 12.5172 45.7798 12.3734C45.5048 12.2266 45.1501 12.1531 44.7157 12.1531H43.1219V20.3H41.3829ZM58.095 13.9391H56.3419C56.2919 13.6516 56.1997 13.3969 56.0653 13.175C55.9309 12.95 55.7637 12.7594 55.5637 12.6031C55.3637 12.4469 55.1356 12.3297 54.8794 12.2516C54.6262 12.1703 54.3528 12.1297 54.0591 12.1297C53.5372 12.1297 53.0747 12.2609 52.6716 12.5234C52.2684 12.7828 51.9528 13.1641 51.7247 13.6672C51.4966 14.1672 51.3825 14.7781 51.3825 15.5C51.3825 16.2344 51.4966 16.8531 51.7247 17.3563C51.9559 17.8563 52.2716 18.2344 52.6716 18.4906C53.0747 18.7438 53.5356 18.8703 54.0544 18.8703C54.3419 18.8703 54.6106 18.8328 54.8606 18.7578C55.1137 18.6797 55.3403 18.5656 55.5403 18.4156C55.7434 18.2656 55.9137 18.0813 56.0512 17.8625C56.1919 17.6438 56.2887 17.3938 56.3419 17.1125L58.095 17.1219C58.0294 17.5781 57.8872 18.0063 57.6684 18.4063C57.4528 18.8063 57.17 19.1594 56.82 19.4656C56.47 19.7688 56.0606 20.0063 55.5919 20.1781C55.1231 20.3469 54.6028 20.4313 54.0309 20.4313C53.1872 20.4313 52.4341 20.2359 51.7716 19.8453C51.1091 19.4547 50.5872 18.8906 50.2059 18.1531C49.8247 17.4156 49.6341 16.5313 49.6341 15.5C49.6341 14.4656 49.8262 13.5813 50.2106 12.8469C50.595 12.1094 51.1184 11.5453 51.7809 11.1547C52.4434 10.7641 53.1934 10.5688 54.0309 10.5688C54.5653 10.5688 55.0622 10.6438 55.5216 10.7938C55.9809 10.9438 56.3903 11.1641 56.7497 11.4547C57.1091 11.7422 57.4044 12.0953 57.6356 12.5141C57.87 12.9297 58.0231 13.4047 58.095 13.9391ZM64.2462 10.7L66.7446 18.2563H66.843L69.3368 10.7H71.2493L67.8649 20.3H65.718L62.3383 10.7H64.2462ZM74.8528 20.4406C74.1309 20.4406 73.5075 20.2906 72.9825 19.9906C72.4606 19.6875 72.0591 19.2594 71.7778 18.7063C71.4966 18.15 71.3559 17.4953 71.3559 16.7422C71.3559 16.0016 71.4966 15.3516 71.7778 14.7922C72.0622 14.2297 72.4591 13.7922 72.9684 13.4797C73.4778 13.1641 74.0762 13.0063 74.7637 13.0063C75.2075 13.0063 75.6262 13.0781 76.02 13.2219C76.4169 13.3625 76.7669 13.5813 77.07 13.8781C77.3762 14.175 77.6169 14.5531 77.7919 15.0125C77.9669 15.4688 78.0544 16.0125 78.0544 16.6438V17.1641H72.1528V16.0203H76.4278C76.4247 15.6953 76.3544 15.4063 76.2169 15.1531C76.0794 14.8969 75.8872 14.6953 75.6403 14.5484C75.3966 14.4016 75.1122 14.3281 74.7872 14.3281C74.4403 14.3281 74.1356 14.4125 73.8731 14.5813C73.6106 14.7469 73.4059 14.9656 73.2591 15.2375C73.1153 15.5063 73.0419 15.8016 73.0387 16.1234V17.1219C73.0387 17.5406 73.1153 17.9 73.2684 18.2C73.4216 18.4969 73.6356 18.725 73.9106 18.8844C74.1856 19.0406 74.5075 19.1188 74.8762 19.1188C75.1231 19.1188 75.3466 19.0844 75.5466 19.0156C75.7466 18.9438 75.92 18.8391 76.0669 18.7016C76.2137 18.5641 76.3247 18.3938 76.3997 18.1906L77.9841 18.3688C77.8841 18.7875 77.6934 19.1531 77.4122 19.4656C77.1341 19.775 76.7778 20.0156 76.3434 20.1875C75.9091 20.3563 75.4122 20.4406 74.8528 20.4406ZM79.4899 20.3V13.1H81.1352V14.3H81.2102C81.3415 13.8844 81.5665 13.5641 81.8852 13.3391C82.2071 13.1109 82.5743 12.9969 82.9868 12.9969C83.0805 12.9969 83.1852 13.0016 83.3009 13.0109C83.4196 13.0172 83.518 13.0281 83.5962 13.0438V14.6047C83.5243 14.5797 83.4102 14.5578 83.254 14.5391C83.1009 14.5172 82.9524 14.5063 82.8087 14.5063C82.4993 14.5063 82.2212 14.5734 81.9743 14.7078C81.7305 14.8391 81.5384 15.0219 81.3977 15.2563C81.2571 15.4906 81.1868 15.7609 81.1868 16.0672V20.3H79.4899ZM90.4141 15.0031L88.8673 15.1719C88.8235 15.0156 88.7469 14.8688 88.6376 14.7313C88.5313 14.5938 88.3876 14.4828 88.2063 14.3984C88.0251 14.3141 87.8032 14.2719 87.5407 14.2719C87.1876 14.2719 86.8907 14.3484 86.6501 14.5016C86.4126 14.6547 86.2954 14.8531 86.2985 15.0969C86.2954 15.3063 86.3719 15.4766 86.5282 15.6078C86.6876 15.7391 86.9501 15.8469 87.3157 15.9313L88.5438 16.1938C89.2251 16.3406 89.7313 16.5734 90.0626 16.8922C90.3969 17.2109 90.5657 17.6281 90.5688 18.1438C90.5657 18.5969 90.4329 18.9969 90.1704 19.3438C89.911 19.6875 89.5501 19.9563 89.0876 20.15C88.6251 20.3438 88.0938 20.4406 87.4938 20.4406C86.6126 20.4406 85.9032 20.2563 85.3657 19.8875C84.8282 19.5156 84.5079 18.9984 84.4048 18.3359L86.0594 18.1766C86.1344 18.5016 86.2938 18.7469 86.5376 18.9125C86.7813 19.0781 87.0985 19.1609 87.4891 19.1609C87.8923 19.1609 88.2157 19.0781 88.4594 18.9125C88.7063 18.7469 88.8298 18.5422 88.8298 18.2984C88.8298 18.0922 88.7501 17.9219 88.5907 17.7875C88.4344 17.6531 88.1907 17.55 87.8594 17.4781L86.6313 17.2203C85.9407 17.0766 85.4298 16.8344 85.0985 16.4938C84.7673 16.15 84.6032 15.7156 84.6063 15.1906C84.6032 14.7469 84.7235 14.3625 84.9673 14.0375C85.2141 13.7094 85.5563 13.4563 85.9938 13.2781C86.4344 13.0969 86.9423 13.0063 87.5173 13.0063C88.361 13.0063 89.0251 13.1859 89.5094 13.5453C89.9969 13.9047 90.2985 14.3906 90.4141 15.0031ZM91.968 20.3V13.1H93.6649V20.3H91.968ZM92.8212 12.0781C92.5524 12.0781 92.3212 11.9891 92.1274 11.8109C91.9337 11.6297 91.8368 11.4125 91.8368 11.1594C91.8368 10.9031 91.9337 10.6859 92.1274 10.5078C92.3212 10.3266 92.5524 10.2359 92.8212 10.2359C93.093 10.2359 93.3243 10.3266 93.5149 10.5078C93.7087 10.6859 93.8055 10.9031 93.8055 11.1594C93.8055 11.4125 93.7087 11.6297 93.5149 11.8109C93.3243 11.9891 93.093 12.0781 92.8212 12.0781ZM98.5505 20.4406C97.8473 20.4406 97.238 20.2859 96.7223 19.9766C96.2067 19.6672 95.8067 19.2344 95.5223 18.6781C95.2411 18.1219 95.1005 17.4719 95.1005 16.7281C95.1005 15.9844 95.2411 15.3328 95.5223 14.7734C95.8067 14.2141 96.2067 13.7797 96.7223 13.4703C97.238 13.1609 97.8473 13.0063 98.5505 13.0063C99.2536 13.0063 99.863 13.1609 100.379 13.4703C100.894 13.7797 101.293 14.2141 101.574 14.7734C101.858 15.3328 102 15.9844 102 16.7281C102 17.4719 101.858 18.1219 101.574 18.6781C101.293 19.2344 100.894 19.6672 100.379 19.9766C99.863 20.2859 99.2536 20.4406 98.5505 20.4406ZM98.5598 19.0813C98.9411 19.0813 99.2598 18.9766 99.5161 18.7672C99.7723 18.5547 99.963 18.2703 100.088 17.9141C100.216 17.5578 100.28 17.1609 100.28 16.7234C100.28 16.2828 100.216 15.8844 100.088 15.5281C99.963 15.1688 99.7723 14.8828 99.5161 14.6703C99.2598 14.4578 98.9411 14.3516 98.5598 14.3516C98.1692 14.3516 97.8442 14.4578 97.5848 14.6703C97.3286 14.8828 97.1364 15.1688 97.0083 15.5281C96.8833 15.8844 96.8208 16.2828 96.8208 16.7234C96.8208 17.1609 96.8833 17.5578 97.0083 17.9141C97.1364 18.2703 97.3286 18.5547 97.5848 18.7672C97.8442 18.9766 98.1692 19.0813 98.5598 19.0813ZM105.138 16.0813V20.3H103.441V13.1H105.063V14.3234H105.147C105.313 13.9203 105.577 13.6 105.939 13.3625C106.305 13.125 106.756 13.0063 107.294 13.0063C107.791 13.0063 108.224 13.1125 108.592 13.325C108.964 13.5375 109.252 13.8453 109.455 14.2484C109.661 14.6516 109.763 15.1406 109.759 15.7156V20.3H108.063V15.9781C108.063 15.4969 107.938 15.1203 107.688 14.8484C107.441 14.5766 107.099 14.4406 106.661 14.4406C106.364 14.4406 106.1 14.5063 105.869 14.6375C105.641 14.7656 105.461 14.9516 105.33 15.1953C105.202 15.4391 105.138 15.7344 105.138 16.0813Z" fill="white"/>
<path d="M41.0673 32.7V26.3H43.4673C43.9589 26.3 44.3714 26.3917 44.7048 26.575C45.0402 26.7583 45.2933 27.0104 45.4641 27.3313C45.637 27.65 45.7235 28.0125 45.7235 28.4188C45.7235 28.8292 45.637 29.1938 45.4641 29.5125C45.2912 29.8313 45.036 30.0823 44.6985 30.2656C44.361 30.4469 43.9454 30.5375 43.4516 30.5375H41.861V29.5844H43.2954C43.5829 29.5844 43.8183 29.5344 44.0016 29.4344C44.185 29.3344 44.3204 29.1969 44.4079 29.0219C44.4975 28.8469 44.5423 28.6458 44.5423 28.4188C44.5423 28.1917 44.4975 27.9917 44.4079 27.8188C44.3204 27.6458 44.1839 27.5115 43.9985 27.4156C43.8152 27.3177 43.5787 27.2688 43.2891 27.2688H42.2266V32.7H41.0673ZM46.6805 32.7V27.9H47.7774V28.7H47.8274C47.9149 28.4229 48.0649 28.2094 48.2774 28.0594C48.492 27.9073 48.7368 27.8313 49.0118 27.8313C49.0743 27.8313 49.1441 27.8344 49.2212 27.8406C49.3003 27.8448 49.366 27.8521 49.418 27.8625V28.9031C49.3701 28.8865 49.2941 28.8719 49.1899 28.8594C49.0878 28.8448 48.9889 28.8375 48.893 28.8375C48.6868 28.8375 48.5014 28.8823 48.3368 28.9719C48.1743 29.0594 48.0462 29.1813 47.9524 29.3375C47.8587 29.4938 47.8118 29.674 47.8118 29.8781V32.7H46.6805ZM52.0969 32.7938C51.6157 32.7938 51.2001 32.6938 50.8501 32.4938C50.5022 32.2917 50.2344 32.0063 50.0469 31.6375C49.8594 31.2667 49.7657 30.8302 49.7657 30.3281C49.7657 29.8344 49.8594 29.401 50.0469 29.0281C50.2365 28.6531 50.5011 28.3615 50.8407 28.1531C51.1803 27.9427 51.5792 27.8375 52.0376 27.8375C52.3334 27.8375 52.6126 27.8854 52.8751 27.9813C53.1397 28.075 53.373 28.2208 53.5751 28.4188C53.7792 28.6167 53.9397 28.8688 54.0563 29.175C54.173 29.4792 54.2313 29.8417 54.2313 30.2625V30.6094H50.2969V29.8469H53.1469C53.1449 29.6302 53.098 29.4375 53.0063 29.2688C52.9147 29.0979 52.7865 28.9635 52.6219 28.8656C52.4594 28.7677 52.2699 28.7188 52.0532 28.7188C51.8219 28.7188 51.6188 28.775 51.4438 28.8875C51.2688 28.9979 51.1324 29.1438 51.0344 29.325C50.9386 29.5042 50.8897 29.701 50.8876 29.9156V30.5813C50.8876 30.8604 50.9386 31.1 51.0407 31.3C51.1428 31.4979 51.2855 31.65 51.4688 31.7563C51.6522 31.8604 51.8667 31.9125 52.1126 31.9125C52.2772 31.9125 52.4261 31.8896 52.5594 31.8438C52.6928 31.7958 52.8084 31.726 52.9063 31.6344C53.0042 31.5427 53.0782 31.4292 53.1282 31.2938L54.1844 31.4125C54.1178 31.6917 53.9907 31.9354 53.8032 32.1438C53.6178 32.35 53.3803 32.5104 53.0907 32.625C52.8011 32.7375 52.4699 32.7938 52.0969 32.7938ZM58.0977 29.5688V30.5H55.2165V29.5688H58.0977ZM59.2876 32.7V27.9H60.3844V28.7H60.4344C60.5219 28.4229 60.6719 28.2094 60.8844 28.0594C61.099 27.9073 61.3438 27.8313 61.6188 27.8313C61.6813 27.8313 61.7511 27.8344 61.8282 27.8406C61.9074 27.8448 61.973 27.8521 62.0251 27.8625V28.9031C61.9772 28.8865 61.9011 28.8719 61.7969 28.8594C61.6949 28.8448 61.5959 28.8375 61.5001 28.8375C61.2938 28.8375 61.1084 28.8823 60.9438 28.9719C60.7813 29.0594 60.6532 29.1813 60.5594 29.3375C60.4657 29.4938 60.4188 29.674 60.4188 29.8781V32.7H59.2876ZM64.704 32.7938C64.2227 32.7938 63.8071 32.6938 63.4571 32.4938C63.1092 32.2917 62.8415 32.0063 62.654 31.6375C62.4665 31.2667 62.3727 30.8302 62.3727 30.3281C62.3727 29.8344 62.4665 29.401 62.654 29.0281C62.8436 28.6531 63.1081 28.3615 63.4477 28.1531C63.7873 27.9427 64.1863 27.8375 64.6446 27.8375C64.9404 27.8375 65.2196 27.8854 65.4821 27.9813C65.7467 28.075 65.98 28.2208 66.1821 28.4188C66.3863 28.6167 66.5467 28.8688 66.6633 29.175C66.78 29.4792 66.8383 29.8417 66.8383 30.2625V30.6094H62.904V29.8469H65.754C65.7519 29.6302 65.705 29.4375 65.6133 29.2688C65.5217 29.0979 65.3936 28.9635 65.229 28.8656C65.0665 28.7677 64.8769 28.7188 64.6602 28.7188C64.429 28.7188 64.2258 28.775 64.0508 28.8875C63.8758 28.9979 63.7394 29.1438 63.6415 29.325C63.5456 29.5042 63.4967 29.701 63.4946 29.9156V30.5813C63.4946 30.8604 63.5456 31.1 63.6477 31.3C63.7498 31.4979 63.8925 31.65 64.0758 31.7563C64.2592 31.8604 64.4738 31.9125 64.7196 31.9125C64.8842 31.9125 65.0331 31.8896 65.1665 31.8438C65.2998 31.7958 65.4154 31.726 65.5133 31.6344C65.6113 31.5427 65.6852 31.4292 65.7352 31.2938L66.7915 31.4125C66.7248 31.6917 66.5977 31.9354 66.4102 32.1438C66.2248 32.35 65.9873 32.5104 65.6977 32.625C65.4081 32.7375 65.0769 32.7938 64.704 32.7938ZM69.8829 34.6C69.4766 34.6 69.1277 34.5448 68.836 34.4344C68.5443 34.326 68.31 34.1802 68.1329 33.9969C67.9558 33.8135 67.8329 33.6104 67.7641 33.3875L68.7829 33.1406C68.8287 33.2344 68.8954 33.3271 68.9829 33.4188C69.0704 33.5125 69.1881 33.5896 69.336 33.65C69.486 33.7125 69.6745 33.7438 69.9016 33.7438C70.2225 33.7438 70.4881 33.6656 70.6985 33.5094C70.9089 33.3552 71.0141 33.101 71.0141 32.7469V31.8375H70.9579C70.8995 31.9542 70.8141 32.074 70.7016 32.1969C70.5912 32.3198 70.4443 32.4229 70.261 32.5063C70.0798 32.5896 69.8516 32.6313 69.5766 32.6313C69.2079 32.6313 68.8735 32.5448 68.5735 32.3719C68.2756 32.1969 68.0381 31.9365 67.861 31.5906C67.686 31.2427 67.5985 30.8073 67.5985 30.2844C67.5985 29.7573 67.686 29.3125 67.861 28.95C68.0381 28.5854 68.2766 28.3094 68.5766 28.1219C68.8766 27.9323 69.211 27.8375 69.5798 27.8375C69.861 27.8375 70.0923 27.8854 70.2735 27.9813C70.4568 28.075 70.6027 28.1885 70.711 28.3219C70.8193 28.4531 70.9016 28.5771 70.9579 28.6938H71.0204V27.9H72.136V32.7781C72.136 33.1885 72.0381 33.5281 71.8423 33.7969C71.6464 34.0656 71.3787 34.2667 71.0391 34.4C70.6995 34.5333 70.3141 34.6 69.8829 34.6ZM69.8923 31.7438C70.1318 31.7438 70.336 31.6854 70.5048 31.5688C70.6735 31.4521 70.8016 31.2844 70.8891 31.0656C70.9766 30.8469 71.0204 30.5844 71.0204 30.2781C71.0204 29.976 70.9766 29.7115 70.8891 29.4844C70.8037 29.2573 70.6766 29.0813 70.5079 28.9563C70.3412 28.8292 70.136 28.7656 69.8923 28.7656C69.6402 28.7656 69.4298 28.8313 69.261 28.9625C69.0923 29.0938 68.9652 29.274 68.8798 29.5031C68.7943 29.7302 68.7516 29.9885 68.7516 30.2781C68.7516 30.5719 68.7943 30.8292 68.8798 31.05C68.9673 31.2688 69.0954 31.4396 69.2641 31.5625C69.435 31.6833 69.6443 31.7438 69.8923 31.7438ZM73.2954 32.7V27.9H74.4266V32.7H73.2954ZM73.8641 27.2188C73.685 27.2188 73.5308 27.1594 73.4016 27.0406C73.2725 26.9198 73.2079 26.775 73.2079 26.6063C73.2079 26.4354 73.2725 26.2906 73.4016 26.1719C73.5308 26.051 73.685 25.9906 73.8641 25.9906C74.0454 25.9906 74.1995 26.051 74.3266 26.1719C74.4558 26.2906 74.5204 26.4354 74.5204 26.6063C74.5204 26.775 74.4558 26.9198 74.3266 27.0406C74.1995 27.1594 74.0454 27.2188 73.8641 27.2188ZM79.3837 29.1688L78.3524 29.2813C78.3232 29.1771 78.2722 29.0792 78.1993 28.9875C78.1285 28.8958 78.0326 28.8219 77.9118 28.7656C77.791 28.7094 77.643 28.6813 77.468 28.6813C77.2326 28.6813 77.0347 28.7323 76.8743 28.8344C76.716 28.9365 76.6378 29.0688 76.6399 29.2313C76.6378 29.3708 76.6889 29.4844 76.793 29.5719C76.8993 29.6594 77.0743 29.7313 77.318 29.7875L78.1368 29.9625C78.591 30.0604 78.9285 30.2156 79.1493 30.4281C79.3722 30.6406 79.4847 30.9188 79.4868 31.2625C79.4847 31.5646 79.3962 31.8313 79.2212 32.0625C79.0482 32.2917 78.8076 32.4708 78.4993 32.6C78.191 32.7292 77.8368 32.7938 77.4368 32.7938C76.8493 32.7938 76.3764 32.6708 76.018 32.425C75.6597 32.1771 75.4462 31.8323 75.3774 31.3906L76.4805 31.2844C76.5305 31.501 76.6368 31.6646 76.7993 31.775C76.9618 31.8854 77.1732 31.9406 77.4337 31.9406C77.7024 31.9406 77.918 31.8854 78.0805 31.775C78.2451 31.6646 78.3274 31.5281 78.3274 31.3656C78.3274 31.2281 78.2743 31.1146 78.168 31.025C78.0639 30.9354 77.9014 30.8667 77.6805 30.8188L76.8618 30.6469C76.4014 30.551 76.0607 30.3896 75.8399 30.1625C75.6191 29.9333 75.5097 29.6438 75.5118 29.2938C75.5097 28.9979 75.5899 28.7417 75.7524 28.525C75.917 28.3063 76.1451 28.1375 76.4368 28.0188C76.7305 27.8979 77.0691 27.8375 77.4524 27.8375C78.0149 27.8375 78.4576 27.9573 78.7805 28.1969C79.1055 28.4365 79.3066 28.7604 79.3837 29.1688ZM82.8165 27.9V28.775H80.0571V27.9H82.8165ZM80.7383 26.75H81.8696V31.2563C81.8696 31.4083 81.8925 31.525 81.9383 31.6063C81.9863 31.6854 82.0488 31.7396 82.1258 31.7688C82.2029 31.7979 82.2883 31.8125 82.3821 31.8125C82.4529 31.8125 82.5175 31.8073 82.5758 31.7969C82.6363 31.7865 82.6821 31.7771 82.7133 31.7688L82.904 32.6531C82.8436 32.674 82.7571 32.6969 82.6446 32.7219C82.5342 32.7469 82.3988 32.7615 82.2383 32.7656C81.955 32.774 81.6998 32.7313 81.4727 32.6375C81.2456 32.5417 81.0654 32.3938 80.9321 32.1938C80.8008 31.9938 80.7363 31.7438 80.7383 31.4438V26.75ZM85.836 32.7938C85.3548 32.7938 84.9391 32.6938 84.5891 32.4938C84.2412 32.2917 83.9735 32.0063 83.786 31.6375C83.5985 31.2667 83.5048 30.8302 83.5048 30.3281C83.5048 29.8344 83.5985 29.401 83.786 29.0281C83.9756 28.6531 84.2402 28.3615 84.5798 28.1531C84.9193 27.9427 85.3183 27.8375 85.7766 27.8375C86.0725 27.8375 86.3516 27.8854 86.6141 27.9813C86.8787 28.075 87.112 28.2208 87.3141 28.4188C87.5183 28.6167 87.6787 28.8688 87.7954 29.175C87.912 29.4792 87.9704 29.8417 87.9704 30.2625V30.6094H84.036V29.8469H86.886C86.8839 29.6302 86.837 29.4375 86.7454 29.2688C86.6537 29.0979 86.5256 28.9635 86.361 28.8656C86.1985 28.7677 86.0089 28.7188 85.7923 28.7188C85.561 28.7188 85.3579 28.775 85.1829 28.8875C85.0079 28.9979 84.8714 29.1438 84.7735 29.325C84.6777 29.5042 84.6287 29.701 84.6266 29.9156V30.5813C84.6266 30.8604 84.6777 31.1 84.7798 31.3C84.8818 31.4979 85.0245 31.65 85.2079 31.7563C85.3912 31.8604 85.6058 31.9125 85.8516 31.9125C86.0162 31.9125 86.1652 31.8896 86.2985 31.8438C86.4318 31.7958 86.5475 31.726 86.6454 31.6344C86.7433 31.5427 86.8173 31.4292 86.8673 31.2938L87.9235 31.4125C87.8568 31.6917 87.7298 31.9354 87.5423 32.1438C87.3568 32.35 87.1193 32.5104 86.8298 32.625C86.5402 32.7375 86.2089 32.7938 85.836 32.7938ZM88.9274 32.7V27.9H90.0243V28.7H90.0743C90.1618 28.4229 90.3118 28.2094 90.5243 28.0594C90.7389 27.9073 90.9837 27.8313 91.2587 27.8313C91.3212 27.8313 91.391 27.8344 91.468 27.8406C91.5472 27.8448 91.6128 27.8521 91.6649 27.8625V28.9031C91.617 28.8865 91.541 28.8719 91.4368 28.8594C91.3347 28.8448 91.2357 28.8375 91.1399 28.8375C90.9337 28.8375 90.7482 28.8823 90.5837 28.9719C90.4212 29.0594 90.293 29.1813 90.1993 29.3375C90.1055 29.4938 90.0587 29.674 90.0587 29.8781V32.7H88.9274Z" fill="white"/>
<defs>
<clipPath id="clip0_1400_341">
<rect width="20.636" height="20.581" fill="white" transform="translate(11 11.7095)"/>
</clipPath>
</defs>
</svg>
