<svg width="104" height="44" viewBox="0 0 104 44" fill="none" xmlns="http://www.w3.org/2000/svg">
<rect x="0.5" y="0.5" width="103" height="43" rx="6.5" fill="black" stroke="#B1B1B1"/>
<path d="M21.9809 11.1294C16.1926 11.1294 11.4506 15.6212 11 21.3297L16.906 23.7871C17.4064 23.4427 18.0109 23.2409 18.6613 23.2409C18.7196 23.2409 18.7776 23.2434 18.8352 23.2462L21.4616 19.4149C21.4616 19.3966 21.4616 19.3788 21.4616 19.3608C21.4616 17.0547 23.3255 15.1785 25.6172 15.1785C27.9086 15.1785 29.7725 17.0547 29.7725 19.3608C29.7725 21.6668 27.9086 23.5432 25.6172 23.5432C25.5855 23.5432 25.5542 23.5432 25.5228 23.5407L21.7769 26.2306C21.7794 26.2795 21.7807 26.3294 21.7807 26.379C21.7807 28.1103 20.3815 29.5181 18.6616 29.5181C17.1518 29.5181 15.8894 28.4336 15.6035 26.9974L11.3796 25.2411C12.6873 29.8959 16.9366 33.3085 21.9809 33.3085C28.0667 33.3085 33 28.3434 33 22.2193C33 16.0943 28.0665 11.1294 21.9809 11.1294Z" fill="white"/>
<path d="M17.9051 27.9561L16.5515 27.3933C16.7914 27.8959 17.2064 28.3168 17.7574 28.5479C18.9485 29.0473 20.3218 28.4785 20.8182 27.2787C21.0586 26.6986 21.0601 26.0581 20.8217 25.4765C20.5838 24.8947 20.1349 24.4409 19.5578 24.1988C18.9851 23.9589 18.3716 23.9676 17.8326 24.1724L19.2307 24.7543C20.1093 25.1228 20.5248 26.1381 20.1586 27.0223C19.7932 27.9067 18.7836 28.3248 17.9051 27.9561Z" fill="white"/>
<path d="M28.3856 19.3607C28.3856 17.8243 27.1437 16.5741 25.6167 16.5741C24.0901 16.5741 22.8478 17.8243 22.8478 19.3607C22.8478 20.8975 24.0901 22.1471 25.6167 22.1471C27.1437 22.1471 28.3856 20.8972 28.3856 19.3607ZM23.5413 19.356C23.5413 18.1998 24.4727 17.2627 25.6215 17.2627C26.7703 17.2627 27.7016 18.1998 27.7016 19.356C27.7016 20.5122 26.7703 21.4492 25.6215 21.4492C24.4727 21.4492 23.5413 20.5119 23.5413 19.356Z" fill="white"/>
<path d="M48.5354 18.3603L47.722 19.7994C47.0954 19.3588 46.2462 19.0937 45.5049 19.0937C44.6576 19.0937 44.1334 19.4467 44.1334 20.0789C44.1334 20.8471 45.0646 21.0258 46.4487 21.5258C47.9366 22.0553 48.7918 22.6776 48.7918 24.049C48.7918 25.9254 47.3256 26.9792 45.2183 26.9792C44.1913 26.9792 42.9524 26.7123 42 26.1292L42.5934 24.5338C43.3671 24.9451 44.2926 25.189 45.1176 25.189C46.2297 25.189 46.7583 24.776 46.7583 24.1656C46.7583 23.467 45.9522 23.2571 44.651 22.8234C43.1681 22.3251 42.1405 21.6713 42.1405 20.1535C42.1405 18.4418 43.5027 17.4587 45.4626 17.4587C46.8286 17.4587 47.9264 17.8943 48.5354 18.3603Z" fill="white"/>
<path d="M52.9793 26.8215V19.2699H50.199V17.6165H57.6668V19.2699H54.8948V26.8215H52.9793Z" fill="white"/>
<path d="M65.3703 21.3391V22.9925H61.7046V25.1529H65.9577V26.8215H59.7897V17.6165H65.9577V19.265H61.7046V21.3391H65.3703Z" fill="white"/>
<path d="M70.233 25.0343L69.6276 26.8217H67.6196L71.049 17.6167H72.9771L76.5034 26.8214H74.4276L73.809 25.034L70.233 25.0343ZM72.0022 19.8124L70.7531 23.498H73.2771L72.0022 19.8124Z" fill="white"/>
<path d="M82.7497 26.5533L80.2873 21.2225V26.8215H78.4531V17.6165H80.2832L83.3571 24.2612L86.3218 17.6165H88.1679V26.8215H86.3339V21.1745L83.8308 26.5533H82.7497Z" fill="white"/>
<path d="M91.8709 18.7777C91.8709 19.5688 91.2819 20.0618 90.6059 20.0618C89.9275 20.0618 89.3371 19.5688 89.3371 18.7777C89.3371 17.9868 89.9275 17.4971 90.6059 17.4971C91.2822 17.4971 91.8709 17.9868 91.8709 18.7777ZM89.5498 18.7777C89.5498 19.4395 90.0235 19.8552 90.6059 19.8552C91.1861 19.8552 91.6579 19.4395 91.6579 18.7777C91.6579 18.1139 91.1861 17.7045 90.6059 17.7045C90.0252 17.7045 89.5498 18.1189 89.5498 18.7777ZM90.6235 18.1233C90.9515 18.1233 91.0618 18.2979 91.0618 18.4865C91.0618 18.6594 90.96 18.7755 90.8359 18.8346L91.1299 19.3889H90.8892L90.6413 18.8975H90.3858V19.3889H90.1855V18.1233H90.6235ZM90.3877 18.7122H90.6111C90.7558 18.7122 90.8411 18.6208 90.8411 18.5059C90.8411 18.3898 90.7799 18.3153 90.6106 18.3153H90.3875V18.7122H90.3877Z" fill="white"/>
</svg>
